File Name

The Joneses 2009 BRRip H264.mp4

File Size
Format : MPEG-4
Format profile : Base Media
Codec ID : isom
File size : 1.79 GiB
Duration : 1h 35mn
Overall bit rate : 2 678 Kbps

Video
ID : 1
Format : AVC
Format/Info : Advanced Video Codec
Format profile : High@L4.1
Format settings, CABAC : Yes
Format settings, ReFrames : 3 frames
Codec ID : avc1
Codec ID/Info : Advanced Video Coding
Duration : 1h 35mn
Bit rate mode : Variable
Bit rate : 2 099 Kbps
Maximum bit rate : 11.8 Mbps
Width : 1 280 pixels
Height : 544 pixels
Display aspect ratio : 2.35:1
Frame rate mode : Constant
Frame rate : 23.976 fps
Resolution : 24 bits
Colorimetry : 4:2:0
Scan type : Progressive
Bits/(Pixel*Frame) : 0.126
Stream size : 1.40 GiB (78%)

Audio #1
ID : 2
Format : AAC
Format/Info : Advanced Audio Codec
Format version : Version 4
Format profile : LC
Format settings, SBR : No
Codec ID : 40
Duration : 1h 35mn
Bit rate mode : Variable
Bit rate : 128 Kbps
Maximum bit rate : 136 Kbps
Channel(s) : 2 channels
Channel positions : L R
Sampling rate : 48.0 KHz
Resolution : 16 bits
Stream size : 87.8 MiB (5%)

Audio #2
ID : 3
Format : AAC
Format/Info : Advanced Audio Codec
Format version : Version 4
Format profile : LC
Format settings, SBR : No
Codec ID : 40
Duration : 1h 35mn
Bit rate mode : Variable
Bit rate : 448 Kbps
Maximum bit rate : 458 Kbps
Channel(s) : 6 channels
Channel positions : Front: L C R, Rear: L R, LFE
Sampling rate : 48.0 KHz
Resolution : 16 bits
Stream size : 307 MiB (17%)

English SRT : ----

Language : English
 
http://www.imdb.com/title/tt1285309/

Release Date: 16 April 2010 (USA)

Genre: Drama

Plot: A seemingly perfect family moves into a suburban neighborhood, but when it comes to the truth as to why they're living there, they don't exactly come clean with their neighbors.

Cast:
Amber Heard ... Jenn
Demi Moore ... Kate
David Duchovny ... Steve
Gary Cole ... Larry
Glenne Headly ... Summer
Ben Hollingsworth ... Mick Jones
Sonya Thompson ... Restaurant Patron
Lauren Hutton ... KC
Chris Williams ... Billy
Catherine Dyer ... Sylivia
Christine Evangelista ... Naomi
Robert Pralgo ... Alex 'The Hammer' Bayner
Ashley LeConte Campbell ... Mary Beth
Kim Wall ... Bethany
Wilbur Fitzgerald ... Golfer
Ric Reitz ... Bob